<svg width="126" height="126" viewBox="0 0 126 126" fill="none" xmlns="http://www.w3.org/2000/svg">
<path d="M99.75 47.25C99.75 54.8625 97.4925 61.8451 93.6075 67.6726C87.9375 76.0726 78.96 82.005 68.5125 83.5275C66.7275 83.8425 64.89 84 63 84C61.11 84 59.2725 83.8425 57.4875 83.5275C47.04 82.005 38.0625 76.0726 32.3925 67.6726C28.5075 61.8451 26.25 54.8625 26.25 47.25C26.25 26.9325 42.6825 10.5 63 10.5C83.3175 10.5 99.75 26.9325 99.75 47.25Z" stroke="#332C1F" stroke-width="4" stroke-linecap="round" stroke-linejoin="round"/>
<path d="M111.563 96.9674L102.901 99.0148C100.958 99.4873 99.4357 100.957 99.0157 102.9L97.1782 110.617C96.1807 114.817 90.8257 116.077 88.0432 112.77L63.0007 83.9999L37.9582 112.822C35.1757 116.13 29.8207 114.87 28.8232 110.67L26.9857 102.952C26.5132 101.01 24.9907 99.4874 23.1007 99.0674L14.4382 97.0199C10.4482 96.0749 9.03066 91.0873 11.9182 88.1998L32.3932 67.7249C38.0632 76.1249 47.0407 82.0575 57.4882 83.58C59.2732 83.895 61.1107 84.0524 63.0007 84.0524C64.8907 84.0524 66.7282 83.895 68.5132 83.58C78.9607 82.0575 87.9382 76.1249 93.6082 67.7249L114.083 88.1998C116.971 91.0348 115.553 96.0224 111.563 96.9674Z" stroke="#332C1F" stroke-width="4" stroke-linecap="round" stroke-linejoin="round"/>
<path d="M64.0335 64.6834C63.4668 64.8834 62.5335 64.8834 61.9668 64.6834C57.1335 63.0334 46.3335 56.1501 46.3335 44.4834C46.3335 39.3334 50.4835 35.1667 55.6002 35.1667C58.6335 35.1667 61.3168 36.6334 63.0002 38.9001C64.6835 36.6334 67.3835 35.1667 70.4002 35.1667C75.5168 35.1667 79.6668 39.3334 79.6668 44.4834C79.6668 56.1501 68.8668 63.0334 64.0335 64.6834Z" stroke="#332C1F" stroke-width="4" stroke-linecap="round" stroke-linejoin="round"/>
</svg>
